# xmcd
#
# Track frame offsets:
#  183
#  27318
#  60865
#  85968
#  118845
#  152543
#  177028
#  206483
#
# Disc length: 3278 seconds
#
# Revision: 1
# Processed by: cddbd v1.5.1PL2 Copyright (c) Steve Scherf et al.
# Submitted via: Collectorz.com_Music_Collector 6.10
#
DISCID=5b0ccc08
DTITLE=Howlin'Wolf - Live In Cambridge, Ma., 1966
DYEAR=1966
DGENRE=Blues
TTITLE0=300 Pounds Of Joy
TTITLE1=I Walked From Dallas
TTITLE2=I Asked For Water
TTITLE3=I Told My Baby
TTITLE4=Tell Me What I've Done
TTITLE5=Down In The Bottle
TTITLE6=Dust My Broom
TTITLE7=Goin' Down Slow
EXTD=
EXTT0=
EXTT1=
EXTT2=
EXTT3=
EXTT4=
EXTT5=
EXTT6=
EXTT7=
PLAYORDER=
